<svg id="be7ea14f-9d7f-45a5-9c77-ee69c358bef1" data-name="Layer 1" xmlns="http://www.w3.org/2000/svg" viewBox="0 0 1000 1000"><defs><style>.be6d31eb-53e9-47f6-bd04-eb1208fc1056{fill:#251f7e;}.b5d06a3f-a498-4f8e-8c81-e4da38e46a4c{fill:#f16722;}.afb4444a-472d-4ffc-b8c1-e6c6a0997edc{fill:#fdee24;}.af96935f-be35-4d16-8539-97967bbbcedc{fill:#FFFFFF;}.eab8ec06-2453-4d65-b25a-b58605d4d8d6{fill:#05040c;}</style></defs><circle class="be6d31eb-53e9-47f6-bd04-eb1208fc1056" cx="499.91" cy="429.28" r="428.44"/><path class="b5d06a3f-a498-4f8e-8c81-e4da38e46a4c" d="M325,539.13q-53.38-12-100.3-55.13-65-59.73-80.41-149.41l5-7q33.26,54.12,99,60.69A143.6,143.6,0,0,0,325,539.13Z"/><path class="afb4444a-472d-4ffc-b8c1-e6c6a0997edc" d="M759,482.6q-19.35-19.2-47.87-19.21-27.87,0-47.42,18.23t-19.54,43.94c0,29.52,20.33,50.37,31.91,64.56-6,1.74-11.9,3.37-17.83,4.85Q599,609.79,531.89,609.79q-70.23,0-128-14.95T285.43,548.17V648.73q58.21,74.06,117.75,108.89a255.5,255.5,0,0,0,258.2-.37q59.29-34.9,116-106.39h.92V537.67Q778.34,501.82,759,482.6Zm-23.64,86.1q-17.7,7.59-35.24,13.71c-2.32-3.71-9-12-9-21q0-9.3,6.24-15t16.42-5.75q10,0,15.83,4.89t5.8,14Z"/><path class="af96935f-be35-4d16-8539-97967bbbcedc" d="M452.36,434.15l-.61-.51a1,1,0,0,0,0-.25C451.94,433.64,452.15,433.9,452.36,434.15Z"/><path class="af96935f-be35-4d16-8539-97967bbbcedc" d="M451.72,433.39c.22.25.43.51.64.76l-.61-.51A1,1,0,0,0,451.72,433.39Z"/><path class="af96935f-be35-4d16-8539-97967bbbcedc" d="M452.36,434.15l-.61-.51a1,1,0,0,0,0-.25C451.94,433.64,452.15,433.9,452.36,434.15Z"/><path class="af96935f-be35-4d16-8539-97967bbbcedc" d="M451.72,433.39c.22.25.43.51.64.76l-.61-.51A1,1,0,0,0,451.72,433.39Z"/><path class="af96935f-be35-4d16-8539-97967bbbcedc" d="M81.08,961.15V971h38.49v9.62H81.08V1000H71.56V951.53h48v9.62Z"/><path class="af96935f-be35-4d16-8539-97967bbbcedc" d="M160.55,961.42v19.06h-9.9v-9.43H140.1v29h-9.9V961.42Z"/><path class="af96935f-be35-4d16-8539-97967bbbcedc" d="M208.1,961.42v38.49H169.24V976.78h29v-6.29h-29v-9.07Zm-9.9,29.88v-6.66H179.14v6.66Z"/><path class="af96935f-be35-4d16-8539-97967bbbcedc" d="M256.2,961.42V1000h-9.53v-29H227.24v29h-9.52V961.42Z"/><path class="af96935f-be35-4d16-8539-97967bbbcedc" d="M276,971V990h29v9.9H266.1V961.15H305V971Z"/><path class="af96935f-be35-4d16-8539-97967bbbcedc" d="M314.66,961.42h38.86v23.13h-29v6.29h29v9.07H314.66Zm9.9,15.27h19.06V970H324.56Z"/><path class="af96935f-be35-4d16-8539-97967bbbcedc" d="M372.94,976.87h29V1000H363v-8.7h29v-6.66H363V961.52H401.9v9h-29Z"/><path class="af96935f-be35-4d16-8539-97967bbbcedc" d="M421.32,971V990h29v9.9H411.43V961.15h38.85V971Z"/><path class="af96935f-be35-4d16-8539-97967bbbcedc" d="M498.84,961.42V1000H460V961.42ZM489,971.05H469.89v19.33H489Z"/><path class="af96935f-be35-4d16-8539-97967bbbcedc" d="M588.85,980.57H550V1000h-9.53V951.62h48.38ZM579,961.52H550V971h29Z"/><path class="af96935f-be35-4d16-8539-97967bbbcedc" d="M608.19,949.12v7.49h-9.53v-7.49Zm-9.53,13h9.53V1000h-9.53Z"/><path class="af96935f-be35-4d16-8539-97967bbbcedc" d="M618.08,961.42h38.86v23.13H628v6.29h29v9.07H618.08Zm9.9,15.27H647V970H628Z"/><path class="af96935f-be35-4d16-8539-97967bbbcedc" d="M696.81,961.42v19.06h-9.9v-9.43H676.36v29h-9.89V961.42Z"/><path class="af96935f-be35-4d16-8539-97967bbbcedc" d="M744.36,961.42v38.49H705.5V976.78h29v-6.29h-29v-9.07Zm-9.9,29.88v-6.66H715.4v6.66Z"/><path class="af96935f-be35-4d16-8539-97967bbbcedc" d="M763.87,971V990h29v9.9H754V961.15h38.85V971Z"/><path class="af96935f-be35-4d16-8539-97967bbbcedc" d="M812.44,971V990h29v9.9H802.54V961.15H841.4V971Z"/><path class="af96935f-be35-4d16-8539-97967bbbcedc" d="M860.64,949.12v7.49h-9.53v-7.49Zm-9.53,13h9.53V1000h-9.53Z"/><path class="af96935f-be35-4d16-8539-97967bbbcedc" d="M909,961.42V1000h-9.53v-29H880.06v29h-9.53V961.42Z"/><path class="af96935f-be35-4d16-8539-97967bbbcedc" d="M928.44,949.12v7.49h-9.52v-7.49Zm-9.52,13h9.52V1000h-9.52Z"/><path class="afb4444a-472d-4ffc-b8c1-e6c6a0997edc" d="M467.61,323.38q-39.24-37.9-96.06-37.89-92.78,0-123.31,102.8a0,0,0,0,0,0,0A143.6,143.6,0,0,0,325,539.13a190.92,190.92,0,0,0,42,4.6q61.45,0,100.7-36t39.24-91.62Q506.85,361.27,467.61,323.38Zm-171.4,99.1a29.33,29.33,0,1,1,29.33-29.33A29.33,29.33,0,0,1,296.21,422.48Z"/><circle class="eab8ec06-2453-4d65-b25a-b58605d4d8d6" cx="296.21" cy="393.15" r="29.33"/></svg>